<svg id="wipe-floor" enable-background="new 0 0 300 300" height="512" viewBox="0 0 300 300" width="512" xmlns="http://www.w3.org/2000/svg"><g><path d="m173.301 231.959h-104c-2.211 0-4 1.791-4 4s1.789 4 4 4h104c2.211 0 4-1.791 4-4s-1.789-4-4-4z"/><path d="m217.301 239.959c2.211 0 4-1.791 4-4s-1.789-4-4-4h-16c-2.211 0-4 1.791-4 4s1.789 4 4 4z"/><path d="m109.301 255.959h-68c-2.211 0-4 1.791-4 4s1.789 4 4 4h68c2.211 0 4-1.791 4-4s-1.789-4-4-4z"/><path d="m153.301 255.959h-20c-2.211 0-4 1.791-4 4s1.789 4 4 4h20c2.211 0 4-1.791 4-4s-1.789-4-4-4z"/><path d="m253.301 255.959h-72c-2.211 0-4 1.791-4 4s1.789 4 4 4h72c2.211 0 4-1.791 4-4s-1.789-4-4-4z"/><path d="m37.965 84.041h12v12c0 2.209 1.789 4 4 4h20c2.211 0 4-1.791 4-4v-12h12c2.211 0 4-1.791 4-4v-20c0-2.209-1.789-4-4-4h-12v-12c0-2.209-1.789-4-4-4h-20c-2.211 0-4 1.791-4 4v12h-12c-2.211 0-4 1.791-4 4v20c0 2.209 1.789 4 4 4zm4-20h12c2.211 0 4-1.791 4-4v-12h12v12c0 2.209 1.789 4 4 4h12v12h-12c-2.211 0-4 1.791-4 4v12h-12v-12c0-2.209-1.789-4-4-4h-12z"/><path d="m242.017 150.432c-2.362 0-4.276 1.915-4.276 4.277s1.914 4.276 4.276 4.276 4.276-1.915 4.276-4.276c0-2.362-1.915-4.277-4.276-4.277z"/><path d="m181.965 52.041c2.211 0 4-1.791 4-4v-8c0-2.209-1.789-4-4-4s-4 1.791-4 4v8c0 2.209 1.789 4 4 4z"/><path d="m181.965 60.041c-2.211 0-4 1.791-4 4v8c0 2.209 1.789 4 4 4s4-1.791 4-4v-8c0-2.209-1.789-4-4-4z"/><path d="m165.965 60.041h8c2.211 0 4-1.791 4-4s-1.789-4-4-4h-8c-2.211 0-4 1.791-4 4s1.789 4 4 4z"/><path d="m189.965 60.041h8c2.211 0 4-1.791 4-4s-1.789-4-4-4h-8c-2.211 0-4 1.791-4 4s1.789 4 4 4z"/><path d="m269.707 98.844-35.504-40.444c-.871-.99-2.172-1.479-3.477-1.334-1.309.154-2.457.943-3.07 2.109l-27.355 51.934-54.828-8.508c-18.051-2.797-36.27 1.348-51.32 11.67l-44.543 30.551c-3.57 2.449-5.863 6.324-6.289 10.633-.326 3.304.492 6.56 2.245 9.302l-4.081 3.339c-7.742 6.334-12.184 15.705-12.184 25.707v18.156c0 2.209 1.789 4 4 4h200c1.723 0 3.25-1.102 3.793-2.734l5.246-15.732c1.898-5.695.734-11.848-3.117-16.455-3.848-4.602-9.672-6.844-15.637-5.988-9.731 1.397-19.427-.823-27.572-6.202 1.516-1.364 2.914-2.886 4.127-4.594 2.789-3.361 43.887-38.41 69.137-59.713.824-.691 1.332-1.686 1.41-2.758.082-1.074-.274-2.133-.981-2.939zm-44.98 84.123c3.195-.447 6.301.74 8.359 3.201 2.059 2.463 2.68 5.75 1.668 8.793l-4.336 12.998h-45.205c-.167-.248-.294-.516-.522-.729-1.18-1.104-29.391-27.066-66.285-31.164-2.141-.256-4.176 1.338-4.418 3.533s1.34 4.174 3.535 4.416c24.555 2.729 45.462 16.36 55.437 23.943h-135.659v-14.156c0-7.594 3.371-14.707 9.246-19.516l5.129-4.196c3.753 1.753 8.162 1.923 12.082.206l10.8-4.73c-4.392 5.709-8.723 12.626-12.269 20.898-.871 2.031.07 4.383 2.102 5.252.512.221 1.047.326 1.574.326 1.551 0 3.027-.91 3.676-2.426 6.727-15.695 16.512-26.166 23.531-32.186.009-.008.012-.02.022-.028l5.818-2.548c.387 1.994 1.215 3.893 2.449 5.58 2.207 3.02 5.457 4.998 9.152 5.57l62.328 9.672c1.473.229 2.938.34 4.391.34 3.99 0 7.854-.885 11.402-2.467.054.04.11.078.165.118.536.882 5.066 8.727 5.066 22.373 0 2.209 1.789 4 4 4s4-1.791 4-4c0-6.511-.916-11.907-2.058-16.138 7.784 3.181 16.286 4.299 24.82 3.065zm-31.039-23.442c-4.449 6.264-11.926 9.432-19.52 8.246l-62.328-9.671c-1.582-.244-2.977-1.092-3.922-2.387-.945-1.293-1.332-2.877-1.086-4.461.461-2.959 3.02-5.082 5.926-5.082.305 0 .613.023.922.072l37.551 5.828c2.191.336 4.227-1.156 4.566-3.34s-1.156-4.227-3.34-4.566l-37.551-5.828c-6-.934-11.715 2.113-14.457 7.17-.094.033-.191.07-.285.111l-39.617 17.352c-2.504 1.098-5.492.525-7.41-1.441-1.371-1.406-2.047-3.332-1.855-5.285.195-1.955 1.234-3.713 2.852-4.822l44.543-30.551c13.367-9.168 29.547-12.859 45.57-10.361l57.648 8.945c1.699.262 3.355-.578 4.152-2.09l25.977-49.316 28.98 33.01c-18.582 15.694-64.711 54.801-67.316 58.467z"/></g></svg>