<svg id="_x33_0" enable-background="new 0 0 64 64" height="512" viewBox="0 0 64 64" width="512" xmlns="http://www.w3.org/2000/svg"><path d="m45.184 39c.414 1.161 1.514 2 2.816 2h10c1.654 0 3-1.346 3-3v-15c1.103 0 2-.897 2-2v-2c0-1.103-.897-2-2-2h-.069c-.317-2.388-1.761-4.467-3.931-5.606v-2.394c1.103 0 2-.897 2-2v-2c0-1.103-.897-2-2-2h-6c-1.103 0-2 .897-2 2v2c0 1.103.897 2 2 2v2.393c-1.284.675-2.308 1.679-3 2.883-.692-1.204-1.716-2.208-3-2.883v-2.393c1.103 0 2-.897 2-2v-2c0-1.103-.897-2-2-2h-6c-1.103 0-2 .897-2 2v2c0 1.103.897 2 2 2v2.393c-2.17 1.14-3.614 3.219-3.931 5.607h-2.069c-1.103 0-2 .897-2 2v2c0 1.103.897 2 2 2v24h-4.184c.112-.314.184-.648.184-1v-9c1.103 0 2-.897 2-2v-2c0-1.103-.897-2-2-2h-2v-12.667l1.6-2.133c2.838-3.783 4.4-8.471 4.4-13.2 0-1.103-.897-2-2-2h-14c-1.103 0-2 .897-2 2 0 4.729 1.563 9.417 4.4 13.2l1.6 2.133v12.667h-3.812l-8.52-19.596c-.635-1.461-2.075-2.405-3.668-2.405-.555 0-1.092.112-1.595.333-.978.425-1.733 1.208-2.125 2.203s-.374 2.082.052 3.061l7.133 16.404h-1.465c-1.103 0-2 .897-2 2v2c0 1.103.897 2 2 2v9c0 .352.072.686.184 1h-4.184c-1.103 0-2 .897-2 2v4c0 1.103.897 2 2 2h1.006c-.64.854-1.006 1.903-1.006 3 0 2.757 2.243 5 5 5s5-2.243 5-5c0-1.097-.366-2.146-1.006-3h31.065c.5 4.493 4.317 8 8.941 8s8.441-3.507 8.941-8h2.059v-1c0-6.065-4.935-11-11-11-3.409 0-6.46 1.559-8.479 4h-4.521v-8zm7.535-16-1.31 5.242c-.112.446-.511.758-.971.758h-11.438v-6zm-13.719 8h6v2h-6zm0 4h6v2h-6zm20 3c0 .551-.449 1-1 1h-10c-.551 0-1-.449-1-1v-7h3.438c1.379 0 2.576-.935 2.911-2.272l1.432-5.728h4.219zm-8-33h6l.001 2h-6.001zm4 4v2h-2v-2zm-2.976 4.105.212-.105h3.528l.211.105c1.561.781 2.616 2.224 2.923 3.895h-9.796c.307-1.671 1.362-3.114 2.922-3.895zm-13.024-8.105h6l.001 2h-6.001zm4 4v2h-2v-2zm-2.976 4.105.212-.105h3.528l.211.105c1.561.781 2.616 2.224 2.923 3.895h-9.796c.307-1.671 1.362-3.114 2.922-3.895zm-7.024 5.895h28l.001 2h-28.001zm-7.5-2h-3l-1.5-2h6zm-.5-4v-10h1.98c-.094 3.401-.667 6.758-1.709 10zm-2 0h-.271c-1.042-3.242-1.615-6.599-1.709-10h1.98zm5.299 0h-.934c.984-3.25 1.526-6.604 1.615-10h2.02c0 3.502-.957 6.972-2.701 10zm-9.279-10c.089 3.396.63 6.75 1.615 10h-.934c-1.744-3.028-2.701-6.498-2.701-10zm3.98 16h2v12h-2zm-19.859-6.733c.196-.498.573-.889 1.063-1.103.972-.427 2.202.053 2.63 1.037l1.329 3.056-3.715 1.486-1.281-2.947c-.213-.488-.223-1.031-.026-1.529zm2.104 6.312 3.715-1.486 6.047 13.907h-4.361zm1.755 14.421h22l.001 2h-22.001zm2 13v-9h18v9c0 .551-.449 1-1 1h-1v-8h-2v8h-4v-8h-2v8h-4v-8h-2v8h-1c-.551 0-1-.449-1-1zm-2 9h2v1c0 .551-.449 1-1 1s-1-.449-1-1zm1 6c-1.654 0-3-1.346-3-3 0-.343.078-.67.189-.985.418 1.154 1.515 1.985 2.811 1.985s2.393-.831 2.811-1.985c.111.315.189.642.189.985 0 1.654-1.346 3-3 3zm44 0c-3.519 0-6.432-2.613-6.92-6h2.021c.465 2.279 2.484 4 4.899 4s4.434-1.721 4.899-4h2.021c-.488 3.387-3.401 6-6.92 6zm-2.816-6h5.631c-.414 1.161-1.514 2-2.816 2s-2.401-.839-2.815-2zm2.816-10c4.625 0 8.446 3.506 8.945 8h-17.89c.499-4.494 4.32-8 8.945-8zm-10.955 8h-38.045v-4h39.204c-.626 1.22-1.03 2.571-1.159 4zm-6.045-6v-24h2v24z"/></svg>