<?xml version="1.0"?>
<svg xmlns="http://www.w3.org/2000/svg" viewBox="0 0 64 64" width="512" height="512"><g id="hygiene-coronavirus-covid19-spray-clean"><path d="M17,31H15V29a1,1,0,0,0-1-1H10a1,1,0,0,0-1,1v2H7a1,1,0,0,0-1,1v4a1,1,0,0,0,1,1H9v2a1,1,0,0,0,1,1h4a1,1,0,0,0,1-1V37h2a1,1,0,0,0,1-1V32A1,1,0,0,0,17,31Zm-1,4H14a1,1,0,0,0-1,1v2H11V36a1,1,0,0,0-1-1H8V33h2a1,1,0,0,0,1-1V30h2v2a1,1,0,0,0,1,1h2Z"/><path d="M19,18H18V15a3.01,3.01,0,0,0-2-2.82V3a1,1,0,0,0-1-1H9A1,1,0,0,0,8,3v9.18A3.01,3.01,0,0,0,6,15v3H5a3.009,3.009,0,0,0-3,3V59a3.009,3.009,0,0,0,3,3H19a3.009,3.009,0,0,0,3-3V21A3.009,3.009,0,0,0,19,18ZM10,4h4v8H10ZM8,15a1,1,0,0,1,1-1h6a1,1,0,0,1,1,1v3H8ZM20,59a1,1,0,0,1-1,1H5a1,1,0,0,1-1-1V21a1,1,0,0,1,1-1H19a1,1,0,0,1,1,1Z"/><path d="M61,33H59.82c-.04-.1-.08-.19-.12-.29l.84-.83a1,1,0,0,0-1.42-1.42l-.83.84c-.1-.04-.19-.08-.29-.12V30a1,1,0,0,0-2,0v1.18c-.1.04-.19.08-.29.12l-.83-.84a1,1,0,0,0-1.42,1.42l.84.83c-.04.1-.08.19-.12.29H53a1,1,0,0,0,0,2h1.18c.04.1.08.19.12.29l-.84.83a1.008,1.008,0,0,0,0,1.42,1.042,1.042,0,0,0,.71.29,1.024,1.024,0,0,0,.71-.29l.83-.84c.1.04.19.08.29.12V38a1,1,0,0,0,2,0V36.82c.1-.04.19-.08.29-.12l.83.84a1.024,1.024,0,0,0,.71.29,1.042,1.042,0,0,0,.71-.29,1.008,1.008,0,0,0,0-1.42l-.84-.83c.04-.1.08-.19.12-.29H61a1,1,0,0,0,0-2Zm-4,2a1,1,0,1,1,1-1A1,1,0,0,1,57,35Z"/><path d="M49,36H47.86a4.166,4.166,0,0,0-.43-1.02l.81-.81a1,1,0,0,0-1.41-1.41l-.81.81A4.166,4.166,0,0,0,45,33.14V32a1,1,0,0,0-2,0v1.14a4.166,4.166,0,0,0-1.02.43l-.81-.81a1,1,0,0,0-1.41,1.41l.81.81A4.166,4.166,0,0,0,40.14,36H39a1,1,0,0,0,0,2h1.14a4.166,4.166,0,0,0,.43,1.02l-.81.81a1,1,0,0,0,0,1.41.978.978,0,0,0,1.41,0l.81-.81a4.166,4.166,0,0,0,1.02.43V42a1,1,0,0,0,2,0V40.86a4.166,4.166,0,0,0,1.02-.43l.81.81a.978.978,0,0,0,1.41,0,1,1,0,0,0,0-1.41l-.81-.81A4.166,4.166,0,0,0,47.86,38H49a1,1,0,0,0,0-2Zm-5,3a2,2,0,1,1,2-2A2.006,2.006,0,0,1,44,39Z"/><path d="M61,17a1,1,0,0,0-1,1H58.86a4.166,4.166,0,0,0-.43-1.02l.81-.81a1.014,1.014,0,0,0,1.42,0,1,1,0,0,0,0-1.41l-1.42-1.42a1,1,0,0,0-1.41,0,1.008,1.008,0,0,0,0,1.42l-.81.81A4.166,4.166,0,0,0,56,15.14V14a1,1,0,0,0,0-2H54a1,1,0,0,0,0,2v1.14a4.166,4.166,0,0,0-1.02.43l-.81-.81a1.008,1.008,0,0,0,0-1.42,1,1,0,0,0-1.41,0l-1.42,1.42a1,1,0,0,0,0,1.41,1.014,1.014,0,0,0,1.42,0l.81.81A4.166,4.166,0,0,0,51.14,18H50a1,1,0,0,0-2,0v2a1,1,0,0,0,2,0h1.14a4.166,4.166,0,0,0,.43,1.02l-.81.81a1.008,1.008,0,0,0-1.42,0,1,1,0,0,0,0,1.41l1.42,1.42a1,1,0,1,0,1.41-1.42l.81-.81a4.166,4.166,0,0,0,1.02.43V24a1,1,0,0,0,0,2h2a1,1,0,0,0,0-2V22.86a4.166,4.166,0,0,0,1.02-.43l.81.81a1,1,0,0,0,1.41,1.42l1.42-1.42a1,1,0,0,0,0-1.41,1.008,1.008,0,0,0-1.42,0l-.81-.81A4.166,4.166,0,0,0,58.86,20H60a1,1,0,0,0,2,0V18A1,1,0,0,0,61,17Zm-6,4a2,2,0,1,1,2-2A2.006,2.006,0,0,1,55,21Z"/><path d="M19,6h1a1,1,0,0,0,0-2H19a1,1,0,0,0,0,2Z"/><path d="M24,6h1a1,1,0,0,0,0-2H24a1,1,0,0,0,0,2Z"/><path d="M29,6h1a1,1,0,0,0,0-2H29a1,1,0,0,0,0,2Z"/><path d="M34,6h1a1,1,0,0,0,0-2H34a1,1,0,0,0,0,2Z"/><path d="M39,6h1a1,1,0,0,0,0-2H39a1,1,0,0,0,0,2Z"/><path d="M44,6h1a1,1,0,0,0,0-2H44a1,1,0,0,0,0,2Z"/><path d="M19.657,11a1,1,0,0,0-1.414,1.414l.707.707a1,1,0,1,0,1.414-1.414Z"/><path d="M23.192,14.536a1,1,0,1,0-1.414,1.414l.707.707A1,1,0,0,0,23.9,15.243Z"/><path d="M26.728,18.071a1,1,0,1,0-1.414,1.414l.707.707a1,1,0,1,0,1.414-1.414Z"/><path d="M30.263,21.606a1,1,0,0,0-1.414,1.415l.708.707a1,1,0,0,0,1.414-1.414Z"/><path d="M33.8,25.142a1,1,0,0,0-1.414,1.414l.707.707a1,1,0,0,0,1.414-1.414Z"/><path d="M38.042,29.385l-.708-.707a1,1,0,1,0-1.414,1.414l.707.707a1,1,0,1,0,1.415-1.414Z"/><path d="M18.381,9.1l.966.258a.972.972,0,0,0,.259.035,1,1,0,0,0,.259-1.966L18.9,7.172A1,1,0,0,0,18.381,9.1Z"/><path d="M25.4,9.949a1,1,0,0,0-.707-1.224l-.965-.259a1,1,0,1,0-.518,1.931l.966.259a.972.972,0,0,0,.259.035A1,1,0,0,0,25.4,9.949Z"/><path d="M29.266,11.985a1,1,0,0,0,.258-1.966l-.966-.259a1,1,0,1,0-.517,1.931l.965.259A.974.974,0,0,0,29.266,11.985Z"/><path d="M34.354,11.313l-.966-.259a1,1,0,1,0-.518,1.932l.966.259a1.015,1.015,0,0,0,.26.034,1,1,0,0,0,.258-1.966Z"/><path d="M37.7,14.28l.966.259a1.013,1.013,0,0,0,.259.034,1,1,0,0,0,.259-1.966l-.967-.259A1,1,0,0,0,37.7,14.28Z"/><path d="M42.529,15.574l.967.259a1,1,0,0,0,.517-1.932l-.966-.259a1,1,0,1,0-.518,1.932Z"/><path d="M51,8a3,3,0,1,0-3-3A3,3,0,0,0,51,8Zm0-4a1,1,0,1,1-1,1A1,1,0,0,1,51,4Z"/><path d="M41,25a3,3,0,1,0,3-3A3,3,0,0,0,41,25Zm4,0a1,1,0,1,1-1-1A1,1,0,0,1,45,25Z"/><path d="M53,43a3,3,0,1,0,3,3A3,3,0,0,0,53,43Zm0,4a1,1,0,1,1,1-1A1,1,0,0,1,53,47Z"/><rect x="11" y="7" width="2" height="2"/><path d="M17,42H7a1,1,0,0,0,0,2H17a1,1,0,0,0,0-2Z"/><path d="M17,46H7a1,1,0,0,0,0,2H17a1,1,0,0,0,0-2Z"/><path d="M14,50H10a1,1,0,0,0,0,2h4a1,1,0,0,0,0-2Z"/></g></svg>
