<svg id="Capa_1" enable-background="new 0 0 512.066 512.066" height="512" viewBox="0 0 512.066 512.066" width="512" xmlns="http://www.w3.org/2000/svg"><g><path d="m324.214 103.19 18.506 91.661 29.407-5.937-20.06-99.355 58.71-.16-.039-89.333-192.331-.066c-64.697.118-117.236 52.985-117.119 117.682l.028 15 59.666-.108.084 46.324-43.945 119.952c-10.058 27.456-14.479 56.188-13.14 85.397s8.37 57.416 20.899 83.836l20.953 43.982 168.347-.104 20.792-44.261c12.432-26.466 19.361-54.698 20.593-83.912 1.233-29.214-3.293-57.93-13.451-85.349l-44.381-119.791-.099-54.115zm-159.422 379.044-12.806-27.004c-16.65-35.112-21.897-74.816-15.477-112.848l22.273 9.498c25.373 10.82 54.208 8.121 77.133-7.223 16.259-10.883 36.925-11.633 53.93-1.955l35.462 20.178c1.905 31.447-3.967 63.281-17.49 92.067l-12.707 27.051zm139.89-165.608c-26.942-15.332-59.688-14.145-85.453 3.098-14.468 9.684-32.664 11.388-48.679 4.559l-26.588-11.338c.432-1.262.87-2.522 1.329-3.776l41.267-112.643 85.748-.156 41.677 112.492c1.944 5.248 3.631 10.573 5.088 15.95zm-113.7-184.107 76.667-.12.062 34-76.667.12zm-58.432-29.894c7.059-41.045 42.871-72.411 85.912-72.49l102.334-.186.068 37.457-43.531 34.955-22.463.041zm248.245-72.785.054 29.667-30 .055-.054-29.667z"/></g></svg>